<?xml version="1.0" encoding="UTF-8" standalone="no"?>
<svg
   version="1.0"
   width="16"
   height="16"
   viewBox="0 0 12 12"
   preserveAspectRatio="xMidYMid"
   id="svg6"
   xmlns="http://www.w3.org/2000/svg">
  <defs
     id="defs10" />
  <g
     transform="matrix(0.01157157,0,0,-0.01157157,0.12094318,9.3132563)"
     fill="#b12f14"
     stroke="none"
     id="g4">
    <path
       d="M 224,549 C 167,536 80,481 53,441 20,392 7,334 14,267 28,131 136,33 282,22 c 52,-4 73,-1 93,12 31,20 34,42 4,25 -13,-6 -47,-9 -80,-7 -77,6 -133,45 -172,120 -48,92 -36,220 26,286 38,41 103,73 159,79 45,4 58,1 87,-19 74,-51 76,-56 79,-289 l 3,-209 h 35 34 v 198 c 0,226 6,251 75,289 111,63 263,-13 295,-147 15,-63 7,-147 -20,-199 C 879,119 821,64 783,49 747,36 684,38 645,54 c -42,18 -46,6 -7,-20 63,-42 194,-16 276,56 124,109 119,317 -10,409 -107,77 -224,80 -330,7 l -37,-25 -33,29 c -19,16 -50,34 -71,39 -45,13 -152,13 -209,0 z"
       id="path2" />
  </g>
</svg>
